<mxfile host="app.diagrams.net" modified="2024-03-27T16:26:19.193Z" agent="Mozilla/5.0 (Windows NT 10.0; Win64; x64) AppleWebKit/537.36 (KHTML, like Gecko) Chrome/123.0.0.0 Safari/537.36" etag="ikvPiQXHdd4v5o-zn-Nm" version="24.0.7" type="device">
  <diagram name="Page-1" id="4VUg6saWRizkleNZj2ED">
    <mxGraphModel dx="3587" dy="3716" grid="0" gridSize="10" guides="1" tooltips="1" connect="1" arrows="1" fold="1" page="0" pageScale="1" pageWidth="1600" pageHeight="900" math="0" shadow="0">
      <root>
        <mxCell id="0" />
        <mxCell id="1" parent="0" />
        <mxCell id="iW0ZyhLI2MdNcuru9LTY-1" value="&lt;font style=&quot;font-size: 20px;&quot;&gt;Ticket Booking Module&lt;/font&gt;" style="rounded=0;whiteSpace=wrap;html=1;" parent="1" vertex="1">
          <mxGeometry x="2594" y="-750" width="252" height="60" as="geometry" />
        </mxCell>
        <mxCell id="iW0ZyhLI2MdNcuru9LTY-3" value="Show available Trains, Coaches, Seats from Train Scheduling" style="rounded=0;whiteSpace=wrap;html=1;movable=1;resizable=1;rotatable=1;deletable=1;editable=1;locked=0;connectable=1;fontSize=15;" parent="1" vertex="1">
          <mxGeometry x="1916" y="-290" width="165" height="114" as="geometry" />
        </mxCell>
        <mxCell id="iW0ZyhLI2MdNcuru9LTY-5" value="Payment" style="rounded=0;whiteSpace=wrap;html=1;movable=1;resizable=1;rotatable=1;deletable=1;editable=1;locked=0;connectable=1;fontSize=15;" parent="1" vertex="1">
          <mxGeometry x="1919.75" y="-93" width="157.5" height="84" as="geometry" />
        </mxCell>
        <mxCell id="iW0ZyhLI2MdNcuru9LTY-7" value="Add Ticket Booking" style="rounded=0;whiteSpace=wrap;html=1;movable=1;resizable=1;rotatable=1;deletable=1;editable=1;locked=0;connectable=1;fontSize=15;" parent="1" vertex="1">
          <mxGeometry x="1922" y="-475" width="153" height="99" as="geometry" />
        </mxCell>
        <mxCell id="iW0ZyhLI2MdNcuru9LTY-8" value="Search Ticket Booking" style="rounded=0;whiteSpace=wrap;html=1;fontSize=15;" parent="1" vertex="1">
          <mxGeometry x="2208" y="-475" width="160" height="95" as="geometry" />
        </mxCell>
        <mxCell id="iW0ZyhLI2MdNcuru9LTY-10" value="Edit Ticket Booking" style="rounded=0;whiteSpace=wrap;html=1;movable=1;resizable=1;rotatable=1;deletable=1;editable=1;locked=0;connectable=1;fontSize=15;" parent="1" vertex="1">
          <mxGeometry x="2496" y="-475" width="154" height="91" as="geometry" />
        </mxCell>
        <mxCell id="iW0ZyhLI2MdNcuru9LTY-12" value="Show available Trains, Coaches, Seats from Trains Scheduling" style="rounded=0;whiteSpace=wrap;html=1;movable=1;resizable=1;rotatable=1;deletable=1;editable=1;locked=0;connectable=1;fontSize=15;" parent="1" vertex="1">
          <mxGeometry x="2485" y="-300" width="176" height="111" as="geometry" />
        </mxCell>
        <mxCell id="iW0ZyhLI2MdNcuru9LTY-15" value="Cancel Ticket Booking" style="rounded=0;whiteSpace=wrap;html=1;movable=1;resizable=1;rotatable=1;deletable=1;editable=1;locked=0;connectable=1;fontSize=15;" parent="1" vertex="1">
          <mxGeometry x="3099" y="-476.5" width="156" height="98" as="geometry" />
        </mxCell>
        <mxCell id="iW0ZyhLI2MdNcuru9LTY-17" value="Display Ticket Booking Details" style="rounded=0;whiteSpace=wrap;html=1;fontSize=15;" parent="1" vertex="1">
          <mxGeometry x="2777" y="-475" width="158" height="93" as="geometry" />
        </mxCell>
        <mxCell id="iW0ZyhLI2MdNcuru9LTY-19" value="Generate Personal Booking Summary Report" style="rounded=0;whiteSpace=wrap;html=1;fontSize=15;" parent="1" vertex="1">
          <mxGeometry x="3381" y="-476.5" width="155" height="96" as="geometry" />
        </mxCell>
        <mxCell id="iW0ZyhLI2MdNcuru9LTY-20" value="Calculate the personal total amount of payment, and display all the booking records." style="rounded=0;whiteSpace=wrap;html=1;fontSize=15;" parent="1" vertex="1">
          <mxGeometry x="3366.5" y="-309" width="184" height="124" as="geometry" />
        </mxCell>
        <mxCell id="iW0ZyhLI2MdNcuru9LTY-21" value="" style="endArrow=none;html=1;rounded=0;entryX=0.5;entryY=1;entryDx=0;entryDy=0;" parent="1" target="iW0ZyhLI2MdNcuru9LTY-1" edge="1">
          <mxGeometry width="50" height="50" relative="1" as="geometry">
            <mxPoint x="2720" y="-586" as="sourcePoint" />
            <mxPoint x="2711" y="-669" as="targetPoint" />
          </mxGeometry>
        </mxCell>
        <mxCell id="iW0ZyhLI2MdNcuru9LTY-22" value="" style="endArrow=none;html=1;rounded=0;" parent="1" edge="1">
          <mxGeometry width="50" height="50" relative="1" as="geometry">
            <mxPoint x="1995.5" y="-582" as="sourcePoint" />
            <mxPoint x="3458" y="-588" as="targetPoint" />
          </mxGeometry>
        </mxCell>
        <mxCell id="iW0ZyhLI2MdNcuru9LTY-24" value="" style="endArrow=none;html=1;rounded=0;entryX=0.5;entryY=1;entryDx=0;entryDy=0;" parent="1" edge="1">
          <mxGeometry width="50" height="50" relative="1" as="geometry">
            <mxPoint x="1995" y="-472" as="sourcePoint" />
            <mxPoint x="1995" y="-582" as="targetPoint" />
          </mxGeometry>
        </mxCell>
        <mxCell id="iW0ZyhLI2MdNcuru9LTY-26" value="" style="endArrow=none;html=1;rounded=0;entryX=0.5;entryY=1;entryDx=0;entryDy=0;" parent="1" edge="1">
          <mxGeometry width="50" height="50" relative="1" as="geometry">
            <mxPoint x="2286.71" y="-477" as="sourcePoint" />
            <mxPoint x="2286.71" y="-583" as="targetPoint" />
          </mxGeometry>
        </mxCell>
        <mxCell id="iW0ZyhLI2MdNcuru9LTY-27" value="" style="endArrow=none;html=1;rounded=0;entryX=0.5;entryY=1;entryDx=0;entryDy=0;" parent="1" edge="1">
          <mxGeometry width="50" height="50" relative="1" as="geometry">
            <mxPoint x="2573" y="-477" as="sourcePoint" />
            <mxPoint x="2573" y="-583" as="targetPoint" />
          </mxGeometry>
        </mxCell>
        <mxCell id="iW0ZyhLI2MdNcuru9LTY-28" value="" style="endArrow=none;html=1;rounded=0;" parent="1" edge="1">
          <mxGeometry width="50" height="50" relative="1" as="geometry">
            <mxPoint x="2855.41" y="-475" as="sourcePoint" />
            <mxPoint x="2855" y="-582" as="targetPoint" />
          </mxGeometry>
        </mxCell>
        <mxCell id="iW0ZyhLI2MdNcuru9LTY-29" value="" style="endArrow=none;html=1;rounded=0;entryX=0.5;entryY=1;entryDx=0;entryDy=0;" parent="1" edge="1">
          <mxGeometry width="50" height="50" relative="1" as="geometry">
            <mxPoint x="3174" y="-478" as="sourcePoint" />
            <mxPoint x="3173.71" y="-586" as="targetPoint" />
          </mxGeometry>
        </mxCell>
        <mxCell id="iW0ZyhLI2MdNcuru9LTY-31" value="" style="endArrow=none;html=1;rounded=0;entryX=0.5;entryY=1;entryDx=0;entryDy=0;" parent="1" edge="1">
          <mxGeometry width="50" height="50" relative="1" as="geometry">
            <mxPoint x="3458" y="-479" as="sourcePoint" />
            <mxPoint x="3457.86" y="-588" as="targetPoint" />
          </mxGeometry>
        </mxCell>
        <mxCell id="iW0ZyhLI2MdNcuru9LTY-34" value="" style="endArrow=none;html=1;rounded=0;exitX=0.5;exitY=1;exitDx=0;exitDy=0;entryX=0.5;entryY=0;entryDx=0;entryDy=0;" parent="1" edge="1" target="iW0ZyhLI2MdNcuru9LTY-3" source="iW0ZyhLI2MdNcuru9LTY-7">
          <mxGeometry width="50" height="50" relative="1" as="geometry">
            <mxPoint x="1965" y="-208.23000000000002" as="sourcePoint" />
            <mxPoint x="2002" y="-281" as="targetPoint" />
          </mxGeometry>
        </mxCell>
        <mxCell id="iW0ZyhLI2MdNcuru9LTY-36" value="" style="endArrow=none;html=1;rounded=0;exitX=0.5;exitY=1;exitDx=0;exitDy=0;entryX=0.5;entryY=0;entryDx=0;entryDy=0;" parent="1" edge="1" target="iW0ZyhLI2MdNcuru9LTY-5" source="iW0ZyhLI2MdNcuru9LTY-3">
          <mxGeometry width="50" height="50" relative="1" as="geometry">
            <mxPoint x="1986" y="-142.00000000000003" as="sourcePoint" />
            <mxPoint x="2081" y="-133.77" as="targetPoint" />
          </mxGeometry>
        </mxCell>
        <mxCell id="iW0ZyhLI2MdNcuru9LTY-42" value="" style="endArrow=none;html=1;rounded=0;exitX=0.5;exitY=1;exitDx=0;exitDy=0;" parent="1" edge="1" source="iW0ZyhLI2MdNcuru9LTY-10">
          <mxGeometry width="50" height="50" relative="1" as="geometry">
            <mxPoint x="2541" y="-200.23999999999998" as="sourcePoint" />
            <mxPoint x="2573" y="-301" as="targetPoint" />
          </mxGeometry>
        </mxCell>
        <mxCell id="iW0ZyhLI2MdNcuru9LTY-50" value="" style="endArrow=none;html=1;rounded=0;exitX=0.5;exitY=0;exitDx=0;exitDy=0;entryX=0.5;entryY=1;entryDx=0;entryDy=0;" parent="1" target="iW0ZyhLI2MdNcuru9LTY-19" edge="1" source="iW0ZyhLI2MdNcuru9LTY-20">
          <mxGeometry width="50" height="50" relative="1" as="geometry">
            <mxPoint x="3429" y="-321" as="sourcePoint" />
            <mxPoint x="3666" y="-362" as="targetPoint" />
          </mxGeometry>
        </mxCell>
        <mxCell id="xvihahwI_SfnJdkpDrHd-46" style="edgeStyle=none;rounded=0;orthogonalLoop=1;jettySize=auto;html=1;entryX=0.5;entryY=0;entryDx=0;entryDy=0;endArrow=none;endFill=0;" edge="1" parent="1" source="xvihahwI_SfnJdkpDrHd-3" target="xvihahwI_SfnJdkpDrHd-5">
          <mxGeometry relative="1" as="geometry" />
        </mxCell>
        <mxCell id="xvihahwI_SfnJdkpDrHd-3" value="&lt;font style=&quot;font-size: 20px;&quot;&gt;Train Ticketing System&lt;/font&gt;" style="rounded=0;whiteSpace=wrap;html=1;" vertex="1" parent="1">
          <mxGeometry x="1427" y="-1684" width="252" height="60" as="geometry" />
        </mxCell>
        <mxCell id="xvihahwI_SfnJdkpDrHd-48" style="edgeStyle=none;rounded=0;orthogonalLoop=1;jettySize=auto;html=1;entryX=0.5;entryY=0;entryDx=0;entryDy=0;endArrow=none;endFill=0;" edge="1" parent="1" source="xvihahwI_SfnJdkpDrHd-5" target="xvihahwI_SfnJdkpDrHd-7">
          <mxGeometry relative="1" as="geometry" />
        </mxCell>
        <mxCell id="xvihahwI_SfnJdkpDrHd-53" style="edgeStyle=none;rounded=0;orthogonalLoop=1;jettySize=auto;html=1;strokeColor=default;align=center;verticalAlign=middle;fontFamily=Helvetica;fontSize=11;fontColor=default;labelBackgroundColor=default;endArrow=none;endFill=0;entryX=0.5;entryY=0;entryDx=0;entryDy=0;" edge="1" parent="1" source="xvihahwI_SfnJdkpDrHd-5" target="xvihahwI_SfnJdkpDrHd-6">
          <mxGeometry relative="1" as="geometry">
            <mxPoint x="468.2857142857142" y="-1435" as="targetPoint" />
            <Array as="points">
              <mxPoint x="64" y="-1440" />
            </Array>
          </mxGeometry>
        </mxCell>
        <mxCell id="xvihahwI_SfnJdkpDrHd-54" style="edgeStyle=none;rounded=0;orthogonalLoop=1;jettySize=auto;html=1;strokeColor=default;align=center;verticalAlign=middle;fontFamily=Helvetica;fontSize=11;fontColor=default;labelBackgroundColor=default;endArrow=none;endFill=0;entryX=0.5;entryY=0;entryDx=0;entryDy=0;" edge="1" parent="1" source="xvihahwI_SfnJdkpDrHd-5" target="xvihahwI_SfnJdkpDrHd-8">
          <mxGeometry relative="1" as="geometry">
            <mxPoint x="3471.666666666667" y="-1398.6666666666665" as="targetPoint" />
            <Array as="points">
              <mxPoint x="4158" y="-1465" />
            </Array>
          </mxGeometry>
        </mxCell>
        <mxCell id="xvihahwI_SfnJdkpDrHd-5" value="Main Menu" style="rounded=0;whiteSpace=wrap;html=1;fontSize=15;" vertex="1" parent="1">
          <mxGeometry x="1473" y="-1488" width="160" height="95" as="geometry" />
        </mxCell>
        <mxCell id="xvihahwI_SfnJdkpDrHd-50" value="" style="edgeStyle=none;rounded=0;orthogonalLoop=1;jettySize=auto;html=1;strokeColor=default;align=center;verticalAlign=middle;fontFamily=Helvetica;fontSize=11;fontColor=default;labelBackgroundColor=default;endArrow=none;endFill=0;" edge="1" parent="1" source="xvihahwI_SfnJdkpDrHd-6" target="xvihahwI_SfnJdkpDrHd-13">
          <mxGeometry relative="1" as="geometry" />
        </mxCell>
        <mxCell id="xvihahwI_SfnJdkpDrHd-6" value="Staff Login" style="rounded=0;whiteSpace=wrap;html=1;fontSize=15;" vertex="1" parent="1">
          <mxGeometry x="-16" y="-1216" width="160" height="95" as="geometry" />
        </mxCell>
        <mxCell id="xvihahwI_SfnJdkpDrHd-49" value="" style="edgeStyle=none;rounded=0;orthogonalLoop=1;jettySize=auto;html=1;endArrow=none;endFill=0;" edge="1" parent="1" source="xvihahwI_SfnJdkpDrHd-7" target="xvihahwI_SfnJdkpDrHd-12">
          <mxGeometry relative="1" as="geometry" />
        </mxCell>
        <mxCell id="xvihahwI_SfnJdkpDrHd-7" value="Member Login" style="rounded=0;whiteSpace=wrap;html=1;fontSize=15;" vertex="1" parent="1">
          <mxGeometry x="1473" y="-1226" width="160" height="95" as="geometry" />
        </mxCell>
        <mxCell id="xvihahwI_SfnJdkpDrHd-39" value="" style="edgeStyle=orthogonalEdgeStyle;rounded=0;orthogonalLoop=1;jettySize=auto;html=1;endArrow=none;endFill=0;" edge="1" parent="1" source="xvihahwI_SfnJdkpDrHd-8" target="xvihahwI_SfnJdkpDrHd-10">
          <mxGeometry relative="1" as="geometry" />
        </mxCell>
        <mxCell id="xvihahwI_SfnJdkpDrHd-40" style="edgeStyle=orthogonalEdgeStyle;rounded=0;orthogonalLoop=1;jettySize=auto;html=1;exitX=0;exitY=0.5;exitDx=0;exitDy=0;entryX=0.5;entryY=0;entryDx=0;entryDy=0;endArrow=none;endFill=0;" edge="1" parent="1" source="xvihahwI_SfnJdkpDrHd-8" target="xvihahwI_SfnJdkpDrHd-9">
          <mxGeometry relative="1" as="geometry" />
        </mxCell>
        <mxCell id="xvihahwI_SfnJdkpDrHd-43" style="edgeStyle=orthogonalEdgeStyle;rounded=0;orthogonalLoop=1;jettySize=auto;html=1;endArrow=none;endFill=0;" edge="1" parent="1" source="xvihahwI_SfnJdkpDrHd-8" target="xvihahwI_SfnJdkpDrHd-11">
          <mxGeometry relative="1" as="geometry" />
        </mxCell>
        <mxCell id="xvihahwI_SfnJdkpDrHd-8" value="Non staff and member" style="rounded=0;whiteSpace=wrap;html=1;fontSize=15;" vertex="1" parent="1">
          <mxGeometry x="4078" y="-1216" width="160" height="95" as="geometry" />
        </mxCell>
        <mxCell id="xvihahwI_SfnJdkpDrHd-9" value="Staff Register" style="rounded=0;whiteSpace=wrap;html=1;fontSize=15;" vertex="1" parent="1">
          <mxGeometry x="3840" y="-1017" width="160" height="95" as="geometry" />
        </mxCell>
        <mxCell id="xvihahwI_SfnJdkpDrHd-10" value="Member Register" style="rounded=0;whiteSpace=wrap;html=1;fontSize=15;" vertex="1" parent="1">
          <mxGeometry x="4078" y="-1017" width="160" height="95" as="geometry" />
        </mxCell>
        <mxCell id="xvihahwI_SfnJdkpDrHd-38" value="" style="edgeStyle=orthogonalEdgeStyle;rounded=0;orthogonalLoop=1;jettySize=auto;html=1;endArrow=none;endFill=0;" edge="1" parent="1" source="xvihahwI_SfnJdkpDrHd-11" target="xvihahwI_SfnJdkpDrHd-37">
          <mxGeometry relative="1" as="geometry" />
        </mxCell>
        <mxCell id="xvihahwI_SfnJdkpDrHd-11" value="Make Ticket Booking by Staff without Member Registration" style="rounded=0;whiteSpace=wrap;html=1;fontSize=15;" vertex="1" parent="1">
          <mxGeometry x="4320" y="-1017" width="160" height="95" as="geometry" />
        </mxCell>
        <mxCell id="xvihahwI_SfnJdkpDrHd-55" style="edgeStyle=none;rounded=0;orthogonalLoop=1;jettySize=auto;html=1;entryX=0.5;entryY=0;entryDx=0;entryDy=0;strokeColor=default;align=center;verticalAlign=middle;fontFamily=Helvetica;fontSize=11;fontColor=default;labelBackgroundColor=default;endArrow=none;endFill=0;" edge="1" parent="1" source="xvihahwI_SfnJdkpDrHd-12" target="iW0ZyhLI2MdNcuru9LTY-1">
          <mxGeometry relative="1" as="geometry">
            <Array as="points">
              <mxPoint x="2720" y="-977" />
            </Array>
          </mxGeometry>
        </mxCell>
        <mxCell id="xvihahwI_SfnJdkpDrHd-12" value="Module Selection" style="rounded=0;whiteSpace=wrap;html=1;fontSize=15;" vertex="1" parent="1">
          <mxGeometry x="1473" y="-1025" width="160" height="95" as="geometry" />
        </mxCell>
        <mxCell id="xvihahwI_SfnJdkpDrHd-52" style="edgeStyle=none;rounded=0;orthogonalLoop=1;jettySize=auto;html=1;entryX=0.5;entryY=0;entryDx=0;entryDy=0;strokeColor=default;align=center;verticalAlign=middle;fontFamily=Helvetica;fontSize=11;fontColor=default;labelBackgroundColor=default;endArrow=none;endFill=0;" edge="1" parent="1" source="xvihahwI_SfnJdkpDrHd-13" target="xvihahwI_SfnJdkpDrHd-14">
          <mxGeometry relative="1" as="geometry">
            <Array as="points">
              <mxPoint x="628" y="-977" />
            </Array>
          </mxGeometry>
        </mxCell>
        <mxCell id="xvihahwI_SfnJdkpDrHd-13" value="Module Selection" style="rounded=0;whiteSpace=wrap;html=1;fontSize=15;" vertex="1" parent="1">
          <mxGeometry x="-16" y="-1025" width="160" height="95" as="geometry" />
        </mxCell>
        <mxCell id="xvihahwI_SfnJdkpDrHd-14" value="&lt;font style=&quot;font-size: 20px;&quot;&gt;Ticket Booking Module&lt;/font&gt;" style="rounded=0;whiteSpace=wrap;html=1;" vertex="1" parent="1">
          <mxGeometry x="502" y="-747" width="252" height="60" as="geometry" />
        </mxCell>
        <mxCell id="xvihahwI_SfnJdkpDrHd-15" value="Show available Trains, Coaches, Seats from Train Scheduling" style="rounded=0;whiteSpace=wrap;html=1;movable=1;resizable=1;rotatable=1;deletable=1;editable=1;locked=0;connectable=1;fontSize=15;" vertex="1" parent="1">
          <mxGeometry x="-176" y="-287" width="165" height="114" as="geometry" />
        </mxCell>
        <mxCell id="xvihahwI_SfnJdkpDrHd-16" value="Payment" style="rounded=0;whiteSpace=wrap;html=1;movable=1;resizable=1;rotatable=1;deletable=1;editable=1;locked=0;connectable=1;fontSize=15;" vertex="1" parent="1">
          <mxGeometry x="-172.25" y="-90" width="157.5" height="84" as="geometry" />
        </mxCell>
        <mxCell id="xvihahwI_SfnJdkpDrHd-17" value="Add Ticket Booking" style="rounded=0;whiteSpace=wrap;html=1;movable=1;resizable=1;rotatable=1;deletable=1;editable=1;locked=0;connectable=1;fontSize=15;" vertex="1" parent="1">
          <mxGeometry x="-170" y="-472" width="153" height="99" as="geometry" />
        </mxCell>
        <mxCell id="xvihahwI_SfnJdkpDrHd-18" value="Search Ticket Booking" style="rounded=0;whiteSpace=wrap;html=1;fontSize=15;" vertex="1" parent="1">
          <mxGeometry x="116" y="-472" width="160" height="95" as="geometry" />
        </mxCell>
        <mxCell id="xvihahwI_SfnJdkpDrHd-19" value="Edit Ticket Booking" style="rounded=0;whiteSpace=wrap;html=1;movable=1;resizable=1;rotatable=1;deletable=1;editable=1;locked=0;connectable=1;fontSize=15;" vertex="1" parent="1">
          <mxGeometry x="404" y="-472" width="154" height="91" as="geometry" />
        </mxCell>
        <mxCell id="xvihahwI_SfnJdkpDrHd-20" value="Show available Trains, Coaches, Seats from Trains Scheduling" style="rounded=0;whiteSpace=wrap;html=1;movable=1;resizable=1;rotatable=1;deletable=1;editable=1;locked=0;connectable=1;fontSize=15;" vertex="1" parent="1">
          <mxGeometry x="393" y="-297" width="176" height="111" as="geometry" />
        </mxCell>
        <mxCell id="xvihahwI_SfnJdkpDrHd-21" value="Cancel Ticket Booking" style="rounded=0;whiteSpace=wrap;html=1;movable=1;resizable=1;rotatable=1;deletable=1;editable=1;locked=0;connectable=1;fontSize=15;" vertex="1" parent="1">
          <mxGeometry x="1007" y="-473.5" width="156" height="98" as="geometry" />
        </mxCell>
        <mxCell id="xvihahwI_SfnJdkpDrHd-22" value="Display Ticket Booking Details" style="rounded=0;whiteSpace=wrap;html=1;fontSize=15;" vertex="1" parent="1">
          <mxGeometry x="685" y="-472" width="158" height="93" as="geometry" />
        </mxCell>
        <mxCell id="xvihahwI_SfnJdkpDrHd-23" value="Generate Final Report of All Ticket Bookings" style="rounded=0;whiteSpace=wrap;html=1;fontSize=15;" vertex="1" parent="1">
          <mxGeometry x="1289" y="-473.5" width="155" height="96" as="geometry" />
        </mxCell>
        <mxCell id="xvihahwI_SfnJdkpDrHd-24" value="Calculate the final total amount of payment, and display all the booking records." style="rounded=0;whiteSpace=wrap;html=1;fontSize=15;" vertex="1" parent="1">
          <mxGeometry x="1274.5" y="-306" width="184" height="124" as="geometry" />
        </mxCell>
        <mxCell id="xvihahwI_SfnJdkpDrHd-25" value="" style="endArrow=none;html=1;rounded=0;entryX=0.5;entryY=1;entryDx=0;entryDy=0;" edge="1" target="xvihahwI_SfnJdkpDrHd-14" parent="1">
          <mxGeometry width="50" height="50" relative="1" as="geometry">
            <mxPoint x="628" y="-583" as="sourcePoint" />
            <mxPoint x="619" y="-666" as="targetPoint" />
          </mxGeometry>
        </mxCell>
        <mxCell id="xvihahwI_SfnJdkpDrHd-26" value="" style="endArrow=none;html=1;rounded=0;" edge="1" parent="1">
          <mxGeometry width="50" height="50" relative="1" as="geometry">
            <mxPoint x="-96.5" y="-579" as="sourcePoint" />
            <mxPoint x="1366" y="-585" as="targetPoint" />
          </mxGeometry>
        </mxCell>
        <mxCell id="xvihahwI_SfnJdkpDrHd-27" value="" style="endArrow=none;html=1;rounded=0;entryX=0.5;entryY=1;entryDx=0;entryDy=0;" edge="1" parent="1">
          <mxGeometry width="50" height="50" relative="1" as="geometry">
            <mxPoint x="-97" y="-469" as="sourcePoint" />
            <mxPoint x="-97" y="-579" as="targetPoint" />
          </mxGeometry>
        </mxCell>
        <mxCell id="xvihahwI_SfnJdkpDrHd-28" value="" style="endArrow=none;html=1;rounded=0;entryX=0.5;entryY=1;entryDx=0;entryDy=0;" edge="1" parent="1">
          <mxGeometry width="50" height="50" relative="1" as="geometry">
            <mxPoint x="194.71000000000004" y="-474" as="sourcePoint" />
            <mxPoint x="194.71000000000004" y="-580" as="targetPoint" />
          </mxGeometry>
        </mxCell>
        <mxCell id="xvihahwI_SfnJdkpDrHd-29" value="" style="endArrow=none;html=1;rounded=0;entryX=0.5;entryY=1;entryDx=0;entryDy=0;" edge="1" parent="1">
          <mxGeometry width="50" height="50" relative="1" as="geometry">
            <mxPoint x="481" y="-474" as="sourcePoint" />
            <mxPoint x="481" y="-580" as="targetPoint" />
          </mxGeometry>
        </mxCell>
        <mxCell id="xvihahwI_SfnJdkpDrHd-30" value="" style="endArrow=none;html=1;rounded=0;" edge="1" parent="1">
          <mxGeometry width="50" height="50" relative="1" as="geometry">
            <mxPoint x="763.4099999999999" y="-472" as="sourcePoint" />
            <mxPoint x="763" y="-579" as="targetPoint" />
          </mxGeometry>
        </mxCell>
        <mxCell id="xvihahwI_SfnJdkpDrHd-31" value="" style="endArrow=none;html=1;rounded=0;entryX=0.5;entryY=1;entryDx=0;entryDy=0;" edge="1" parent="1">
          <mxGeometry width="50" height="50" relative="1" as="geometry">
            <mxPoint x="1082" y="-475" as="sourcePoint" />
            <mxPoint x="1081.71" y="-583" as="targetPoint" />
          </mxGeometry>
        </mxCell>
        <mxCell id="xvihahwI_SfnJdkpDrHd-32" value="" style="endArrow=none;html=1;rounded=0;entryX=0.5;entryY=1;entryDx=0;entryDy=0;" edge="1" parent="1">
          <mxGeometry width="50" height="50" relative="1" as="geometry">
            <mxPoint x="1366" y="-476" as="sourcePoint" />
            <mxPoint x="1365.8600000000001" y="-585" as="targetPoint" />
          </mxGeometry>
        </mxCell>
        <mxCell id="xvihahwI_SfnJdkpDrHd-33" value="" style="endArrow=none;html=1;rounded=0;exitX=0.5;exitY=1;exitDx=0;exitDy=0;entryX=0.5;entryY=0;entryDx=0;entryDy=0;" edge="1" source="xvihahwI_SfnJdkpDrHd-17" target="xvihahwI_SfnJdkpDrHd-15" parent="1">
          <mxGeometry width="50" height="50" relative="1" as="geometry">
            <mxPoint x="-127" y="-205.23000000000002" as="sourcePoint" />
            <mxPoint x="-90" y="-278" as="targetPoint" />
          </mxGeometry>
        </mxCell>
        <mxCell id="xvihahwI_SfnJdkpDrHd-34" value="" style="endArrow=none;html=1;rounded=0;exitX=0.5;exitY=1;exitDx=0;exitDy=0;entryX=0.5;entryY=0;entryDx=0;entryDy=0;" edge="1" source="xvihahwI_SfnJdkpDrHd-15" target="xvihahwI_SfnJdkpDrHd-16" parent="1">
          <mxGeometry width="50" height="50" relative="1" as="geometry">
            <mxPoint x="-106" y="-139.00000000000003" as="sourcePoint" />
            <mxPoint x="-11" y="-130.77" as="targetPoint" />
          </mxGeometry>
        </mxCell>
        <mxCell id="xvihahwI_SfnJdkpDrHd-35" value="" style="endArrow=none;html=1;rounded=0;exitX=0.5;exitY=1;exitDx=0;exitDy=0;" edge="1" source="xvihahwI_SfnJdkpDrHd-19" parent="1">
          <mxGeometry width="50" height="50" relative="1" as="geometry">
            <mxPoint x="449" y="-197.23999999999998" as="sourcePoint" />
            <mxPoint x="481" y="-298" as="targetPoint" />
          </mxGeometry>
        </mxCell>
        <mxCell id="xvihahwI_SfnJdkpDrHd-36" value="" style="endArrow=none;html=1;rounded=0;exitX=0.5;exitY=0;exitDx=0;exitDy=0;entryX=0.5;entryY=1;entryDx=0;entryDy=0;" edge="1" source="xvihahwI_SfnJdkpDrHd-24" target="xvihahwI_SfnJdkpDrHd-23" parent="1">
          <mxGeometry width="50" height="50" relative="1" as="geometry">
            <mxPoint x="1337" y="-318" as="sourcePoint" />
            <mxPoint x="1574" y="-359" as="targetPoint" />
          </mxGeometry>
        </mxCell>
        <mxCell id="xvihahwI_SfnJdkpDrHd-37" value="Staff Login" style="rounded=0;whiteSpace=wrap;html=1;fontSize=15;" vertex="1" parent="1">
          <mxGeometry x="4320" y="-840" width="160" height="95" as="geometry" />
        </mxCell>
      </root>
    </mxGraphModel>
  </diagram>
</mxfile>
